<svg xmlns="http://www.w3.org/2000/svg" viewBox="0 0 100 100" preserveAspectRatio="xMidYMid" width="192" height="192" style="shape-rendering: auto; display: block; background: transparent;" xmlns:xlink="http://www.w3.org/1999/xlink"><g><g transform="rotate(0 50 50)">
  <rect fill="#fefefe" height="10" width="6" ry="3.2" rx="3" y="25" x="47">
    <animate repeatCount="indefinite" begin="-0.844155844155844s" dur="0.9090909090909091s" keyTimes="0;1" values="1;0" attributeName="opacity"></animate>
  </rect>
</g><g transform="rotate(25.714285714285715 50 50)">
  <rect fill="#fefefe" height="10" width="6" ry="3.2" rx="3" y="25" x="47">
    <animate repeatCount="indefinite" begin="-0.7792207792207791s" dur="0.9090909090909091s" keyTimes="0;1" values="1;0" attributeName="opacity"></animate>
  </rect>
</g><g transform="rotate(51.42857142857143 50 50)">
  <rect fill="#fefefe" height="10" width="6" ry="3.2" rx="3" y="25" x="47">
    <animate repeatCount="indefinite" begin="-0.7142857142857142s" dur="0.9090909090909091s" keyTimes="0;1" values="1;0" attributeName="opacity"></animate>
  </rect>
</g><g transform="rotate(77.14285714285714 50 50)">
  <rect fill="#fefefe" height="10" width="6" ry="3.2" rx="3" y="25" x="47">
    <animate repeatCount="indefinite" begin="-0.6493506493506492s" dur="0.9090909090909091s" keyTimes="0;1" values="1;0" attributeName="opacity"></animate>
  </rect>
</g><g transform="rotate(102.85714285714286 50 50)">
  <rect fill="#fefefe" height="10" width="6" ry="3.2" rx="3" y="25" x="47">
    <animate repeatCount="indefinite" begin="-0.5844155844155844s" dur="0.9090909090909091s" keyTimes="0;1" values="1;0" attributeName="opacity"></animate>
  </rect>
</g><g transform="rotate(128.57142857142858 50 50)">
  <rect fill="#fefefe" height="10" width="6" ry="3.2" rx="3" y="25" x="47">
    <animate repeatCount="indefinite" begin="-0.5194805194805194s" dur="0.9090909090909091s" keyTimes="0;1" values="1;0" attributeName="opacity"></animate>
  </rect>
</g><g transform="rotate(154.28571428571428 50 50)">
  <rect fill="#fefefe" height="10" width="6" ry="3.2" rx="3" y="25" x="47">
    <animate repeatCount="indefinite" begin="-0.4545454545454545s" dur="0.9090909090909091s" keyTimes="0;1" values="1;0" attributeName="opacity"></animate>
  </rect>
</g><g transform="rotate(180 50 50)">
  <rect fill="#fefefe" height="10" width="6" ry="3.2" rx="3" y="25" x="47">
    <animate repeatCount="indefinite" begin="-0.3896103896103896s" dur="0.9090909090909091s" keyTimes="0;1" values="1;0" attributeName="opacity"></animate>
  </rect>
</g><g transform="rotate(205.71428571428572 50 50)">
  <rect fill="#fefefe" height="10" width="6" ry="3.2" rx="3" y="25" x="47">
    <animate repeatCount="indefinite" begin="-0.3246753246753246s" dur="0.9090909090909091s" keyTimes="0;1" values="1;0" attributeName="opacity"></animate>
  </rect>
</g><g transform="rotate(231.42857142857142 50 50)">
  <rect fill="#fefefe" height="10" width="6" ry="3.2" rx="3" y="25" x="47">
    <animate repeatCount="indefinite" begin="-0.2597402597402597s" dur="0.9090909090909091s" keyTimes="0;1" values="1;0" attributeName="opacity"></animate>
  </rect>
</g><g transform="rotate(257.14285714285717 50 50)">
  <rect fill="#fefefe" height="10" width="6" ry="3.2" rx="3" y="25" x="47">
    <animate repeatCount="indefinite" begin="-0.1948051948051948s" dur="0.9090909090909091s" keyTimes="0;1" values="1;0" attributeName="opacity"></animate>
  </rect>
</g><g transform="rotate(282.85714285714283 50 50)">
  <rect fill="#fefefe" height="10" width="6" ry="3.2" rx="3" y="25" x="47">
    <animate repeatCount="indefinite" begin="-0.12987012987012986s" dur="0.9090909090909091s" keyTimes="0;1" values="1;0" attributeName="opacity"></animate>
  </rect>
</g><g transform="rotate(308.57142857142856 50 50)">
  <rect fill="#fefefe" height="10" width="6" ry="3.2" rx="3" y="25" x="47">
    <animate repeatCount="indefinite" begin="-0.06493506493506493s" dur="0.9090909090909091s" keyTimes="0;1" values="1;0" attributeName="opacity"></animate>
  </rect>
</g><g transform="rotate(334.2857142857143 50 50)">
  <rect fill="#fefefe" height="10" width="6" ry="3.2" rx="3" y="25" x="47">
    <animate repeatCount="indefinite" begin="0s" dur="0.9090909090909091s" keyTimes="0;1" values="1;0" attributeName="opacity"></animate>
  </rect>
</g><g></g></g><!-- [ldio] generated by https://loading.io --></svg>